<?xml version="1.0" standalone="no"?>
<!DOCTYPE svg PUBLIC "-//W3C//DTD SVG 20010904//EN"
 "http://www.w3.org/TR/2001/REC-SVG-20010904/DTD/svg10.dtd">
<svg version="1.0" xmlns="http://www.w3.org/2000/svg"
 width="600.000000pt" height="600.000000pt" viewBox="0 0 600.000000 600.000000"
 preserveAspectRatio="xMidYMid meet">
<metadata>
Created by potrace 1.11, written by Peter Selinger 2001-2013
</metadata>
<g transform="translate(0.000000,600.000000) scale(0.100000,-0.100000)"
fill="#000000" stroke="none">
<path d="M3441 5368 c-18 -5 -58 -23 -87 -40 -52 -29 -61 -30 -187 -34 -222
-5 -405 -35 -607 -99 -172 -54 -155 -55 -213 3 -29 27 -67 58 -86 67 -111 56
-295 8 -419 -108 -97 -93 -206 -279 -249 -426 -16 -58 -23 -67 -78 -110 -73
-56 -248 -206 -331 -282 -38 -35 -74 -60 -95 -64 -62 -13 -146 -63 -189 -112
-47 -53 -92 -144 -118 -238 -9 -33 -41 -100 -71 -150 -143 -236 -240 -505
-287 -800 -27 -165 -25 -463 4 -665 55 -377 141 -590 336 -830 88 -109 230
-249 316 -312 169 -124 390 -278 475 -330 185 -115 450 -234 700 -314 336
-108 406 -119 780 -119 302 0 389 9 592 61 214 54 392 136 608 279 231 153
433 334 591 530 296 366 546 994 595 1495 35 362 -34 750 -211 1190 -32 80
-64 165 -70 190 -16 61 -56 143 -87 176 -14 15 -43 57 -65 93 -71 117 -134
194 -250 306 -177 173 -345 281 -592 380 -76 30 -155 68 -175 83 -69 54 -182
116 -323 176 -40 18 -152 20 -207 4z m204 -73 c78 -21 237 -119 319 -198 81
-78 241 -297 294 -402 96 -191 187 -335 212 -335 22 0 -103 292 -168 394 -14
23 -38 66 -53 96 -15 30 -43 77 -63 104 -19 28 -33 52 -31 54 5 6 206 -101
264 -140 78 -53 193 -153 269 -233 66 -69 202 -241 202 -256 0 -3 -22 -20 -50
-37 -56 -35 -83 -73 -106 -149 -11 -39 -12 -57 -4 -73 12 -23 35 -27 26 -4
-14 37 68 150 136 185 49 25 76 24 120 -6 73 -50 106 -193 149 -645 10 -103 9
-128 -10 -239 -11 -68 -21 -130 -21 -138 0 -24 25 2 49 50 l21 42 0 -115 c0
-63 -7 -155 -15 -205 -18 -113 -41 -234 -50 -260 -3 -11 12 17 33 61 66 137
90 235 93 379 l1 70 10 -55 c17 -105 14 -454 -5 -580 -58 -372 -238 -844 -440
-1153 -295 -452 -840 -845 -1297 -936 -179 -35 -277 -43 -520 -43 -230 0 -364
10 -505 37 -38 7 -101 19 -140 25 -38 7 -101 23 -140 37 -38 13 -113 37 -165
53 -104 31 -260 93 -330 132 -25 14 -101 56 -170 93 -199 107 -368 237 -624
478 -222 209 -337 419 -400 727 -76 376 -69 770 20 1082 29 106 85 261 90 255
3 -2 -2 -44 -11 -92 -16 -93 -20 -251 -7 -259 5 -3 16 53 26 124 10 71 21 142
26 157 8 28 8 27 9 -8 1 -19 8 -60 18 -90 15 -48 17 -51 24 -29 4 14 7 53 8
87 2 104 50 397 85 515 38 128 93 250 130 290 73 80 156 101 202 51 41 -45 48
-87 29 -187 -9 -49 -14 -90 -12 -93 3 -2 17 21 33 53 38 78 43 150 15 205
l-22 42 53 54 c57 59 232 213 242 213 3 0 -1 -19 -9 -41 -17 -48 -18 -59 -7
-59 19 0 113 195 162 335 79 229 112 295 173 347 136 116 214 151 343 152 84
1 93 -1 127 -27 45 -34 130 -152 163 -226 19 -42 27 -52 36 -43 10 10 8 27 -5
80 -9 37 -17 70 -17 74 0 7 126 50 220 74 116 29 276 53 402 60 l122 7 -19
-29 c-35 -53 -44 -80 -55 -150 -16 -113 -11 -114 41 -9 61 125 89 163 140 192
22 12 53 32 69 43 70 50 161 62 265 35z"/>
<path d="M3538 4614 c-40 -12 -107 -68 -95 -80 2 -2 28 9 58 24 52 26 60 27
206 27 83 0 149 3 147 7 -3 4 -28 14 -56 23 -64 19 -197 18 -260 -1z"/>
<path d="M1889 4556 c-67 -18 -177 -86 -139 -86 6 0 27 8 48 19 77 39 192 48
312 25 l25 -5 -23 20 c-46 40 -135 51 -223 27z"/>
<path d="M3685 4470 c-27 -3 -77 -16 -111 -27 -245 -83 -315 -149 -454 -423
-63 -124 -86 -190 -69 -190 5 0 28 17 52 39 59 54 89 67 197 84 251 42 635 41
765 0 58 -19 347 -156 388 -185 34 -24 45 -17 25 14 -8 13 -23 49 -32 82 -39
134 -201 418 -279 488 -76 69 -120 87 -265 109 -134 20 -138 20 -217 9z m158
-103 c-4 -28 0 -40 27 -71 42 -47 79 -66 130 -66 33 0 48 6 72 30 l30 30 25
-20 c50 -39 206 -310 189 -327 -4 -4 -21 1 -39 10 -48 26 -191 66 -297 84
-197 33 -556 18 -740 -31 -30 -8 -57 -12 -59 -10 -2 2 13 38 34 79 68 134 207
260 330 298 76 24 82 25 197 26 l107 1 -6 -33z m97 14 c0 -4 -9 -20 -21 -35
-17 -21 -24 -24 -35 -15 -17 14 -18 31 -2 47 14 14 58 16 58 3z m85 -101 c-3
-5 -14 -10 -23 -9 -14 0 -13 2 3 9 27 11 27 11 20 0z"/>
<path d="M1887 4389 c-71 -8 -150 -43 -273 -121 -108 -67 -230 -244 -292 -423
-21 -60 -44 -121 -51 -133 -7 -13 -11 -25 -9 -27 2 -2 63 37 137 86 200 133
299 156 621 145 182 -6 187 -7 270 -41 47 -19 100 -46 118 -61 18 -14 35 -24
38 -21 3 2 -2 24 -10 48 -8 24 -24 78 -36 119 -32 109 -116 290 -153 328 -50
52 -129 91 -204 102 -38 5 -72 9 -78 8 -5 0 -41 -4 -78 -9z m144 -112 c11 -69
100 -134 168 -124 l36 6 37 -77 c43 -90 55 -132 38 -132 -6 0 -32 9 -58 19
-82 34 -153 44 -297 44 -96 0 -164 -6 -215 -18 -90 -20 -258 -98 -320 -148
-25 -20 -47 -32 -48 -27 -9 25 141 263 212 338 73 78 275 162 381 159 l60 -2
6 -38z m82 36 c6 -5 -37 -53 -49 -53 -7 0 -5 46 3 53 8 9 38 9 46 0z m80 -130
c-7 -2 -19 -2 -25 0 -7 3 -2 5 12 5 14 0 19 -2 13 -5z"/>
<path d="M4940 4220 c-16 -38 -8 -140 17 -225 24 -79 20 -188 -8 -272 -35
-105 -221 -365 -312 -434 -23 -18 -55 -45 -72 -60 -16 -15 -78 -57 -136 -92
-90 -55 -128 -72 -260 -110 -255 -76 -814 -178 -1129 -206 -491 -45 -796 -51
-1065 -21 -99 11 -205 22 -235 26 -63 7 -230 39 -275 53 -16 5 -81 35 -144 66
-99 50 -125 69 -205 149 -105 104 -148 175 -171 285 -28 136 -17 215 66 464
31 94 35 142 16 196 -17 50 -33 49 -29 -2 3 -31 -9 -81 -43 -183 -89 -268
-100 -343 -65 -480 27 -105 67 -185 134 -265 l55 -66 -72 -6 c-40 -3 -89 -11
-110 -17 -44 -13 -152 -113 -162 -150 -7 -23 -4 -22 31 12 22 20 59 46 84 57
100 44 301 36 390 -16 l44 -26 -44 -16 c-73 -26 -121 -56 -190 -117 -89 -80
-135 -137 -175 -219 -31 -63 -70 -194 -61 -203 2 -1 23 32 46 75 74 138 213
285 340 360 35 21 61 27 120 30 41 2 95 0 120 -4 l45 -8 3 -54 c2 -29 10 -64
19 -78 17 -26 70 -56 146 -83 l48 -17 -44 -49 c-77 -86 -120 -174 -141 -283
-9 -49 3 -32 28 41 32 90 67 142 160 233 87 87 165 144 263 194 81 41 103 41
103 1 0 -38 24 -98 51 -127 26 -27 22 -41 -42 -138 -73 -110 -101 -207 -84
-292 7 -38 8 -38 29 43 30 112 78 204 139 270 l52 55 37 -15 c21 -9 48 -16 62
-16 24 0 24 -1 10 -30 -9 -16 -14 -44 -12 -62 l3 -33 18 35 c35 69 97 120 147
120 19 0 115 -32 138 -46 2 -1 -12 -26 -32 -54 -74 -108 -105 -291 -86 -517
19 -228 25 -236 33 -43 11 306 45 457 126 563 42 56 52 63 131 93 l85 32 6
-51 c3 -29 9 -63 14 -76 9 -31 20 -14 30 49 18 108 119 233 221 273 67 26 204
41 254 27 66 -18 189 -120 308 -255 17 -20 32 -34 32 -31 0 14 -35 94 -52 118
l-19 27 44 -1 c51 -1 146 29 232 74 80 41 92 52 126 124 28 58 31 60 62 56 68
-10 172 -94 257 -206 25 -32 30 -35 30 -18 0 38 -69 167 -113 214 -24 25 -63
54 -86 64 l-42 18 142 48 142 48 57 -15 c79 -20 141 -49 196 -91 l47 -36 -7
29 c-12 46 -51 88 -131 140 l-75 49 33 24 c17 13 59 49 92 80 33 32 94 89 136
129 81 76 155 190 197 304 41 107 34 274 -14 389 -18 44 -24 76 -24 133 0 80
-10 94 -30 45z m-910 -1333 c0 -31 -41 -81 -109 -131 -91 -68 -125 -80 -212
-74 -63 5 -71 8 -123 53 -31 26 -56 51 -56 56 0 5 10 11 23 13 141 27 391 79
413 86 43 12 64 12 64 -3z m-2250 -112 c63 -9 115 -17 116 -18 5 -5 -92 -104
-113 -115 -31 -17 -65 -15 -130 8 -77 27 -105 55 -101 99 3 39 29 53 83 45 17
-2 82 -11 145 -19z m678 -60 c2 -2 1 -28 -3 -59 -6 -49 -11 -57 -47 -82 -56
-39 -142 -45 -194 -14 -44 28 -94 103 -94 143 l0 28 168 -7 c92 -3 168 -8 170
-9z m516 3 c-35 -61 -67 -97 -91 -103 -15 -3 -69 -24 -120 -46 -105 -45 -133
-47 -188 -18 -58 30 -58 31 -50 103 l7 66 181 3 c100 1 201 3 225 5 32 1 41
-1 36 -10z"/>
<path d="M4673 4068 c7 -18 11 -73 10 -123 -1 -90 -1 -90 18 -67 19 24 39 82
39 116 0 35 -40 106 -60 106 -17 0 -17 -3 -7 -32z"/>
<path d="M1247 3982 c-45 -99 -69 -213 -48 -226 5 -3 14 23 20 59 7 36 24 101
40 145 33 93 25 106 -12 22z"/>
<path d="M3494 3890 c-60 -9 -74 -16 -74 -35 0 -11 6 -12 24 -5 33 12 279 -4
380 -25 95 -20 197 -56 291 -102 l70 -35 -29 31 c-36 38 -159 102 -246 129
-115 35 -322 56 -416 42z"/>
<path d="M1835 3823 c-97 -22 -346 -125 -333 -138 2 -2 42 10 88 26 246 88
342 99 519 60 52 -12 96 -19 98 -17 6 6 -92 45 -153 61 -54 14 -173 18 -219 8z"/>
<path d="M2264 3647 c-59 -38 -123 -70 -160 -80 -78 -22 -88 -21 -41 4 20 11
37 21 37 24 0 7 -55 -3 -126 -23 -118 -35 -161 -39 -299 -26 -71 6 -142 16
-157 22 -15 6 -34 9 -42 6 -8 -3 -38 7 -67 22 -36 18 -49 21 -40 10 16 -20 5
-20 -29 -1 -14 8 -36 14 -49 15 -23 0 -23 -1 -7 -25 11 -17 13 -25 4 -25 -25
0 47 -60 104 -85 76 -34 181 -54 328 -61 123 -6 251 12 389 58 65 21 253 139
232 146 -6 2 -1 17 14 36 49 65 33 62 -91 -17z"/>
<path d="M3200 3639 l35 -31 -47 27 c-63 36 -79 28 -39 -18 37 -41 114 -82
205 -108 33 -10 54 -18 46 -18 -8 -1 -30 3 -48 8 -42 12 -42 -4 1 -18 136 -42
149 -44 389 -38 217 5 241 8 343 35 123 33 242 86 295 133 41 36 43 36 -123
-15 -65 -20 -135 -36 -155 -36 l-36 0 42 27 c42 28 57 51 25 38 -10 -3 -70
-22 -133 -42 l-115 -35 -165 7 c-91 4 -173 11 -182 16 -10 6 -18 6 -18 1 0
-22 -206 26 -294 69 l-61 30 35 -32z m247 -155 c-3 -3 -12 -4 -19 -1 -8 3 -5
6 6 6 11 1 17 -2 13 -5z"/>
</g>
</svg>
